<svg height="512" viewBox="0 0 64 64" width="512" xmlns="http://www.w3.org/2000/svg"><g id="video_game_controller-game_controller-monitor-gamepad-game" data-name="video game controller-game controller-monitor-gamepad-game"><path d="m49 2h-34a3.009 3.009 0 0 0 -3 3v54a3.009 3.009 0 0 0 3 3h34a3.009 3.009 0 0 0 3-3v-54a3.009 3.009 0 0 0 -3-3zm1 57a1 1 0 0 1 -1 1h-34a1 1 0 0 1 -1-1v-54a1 1 0 0 1 1-1h34a1 1 0 0 1 1 1z"/><path d="m47 6h-30a1 1 0 0 0 -1 1v32a1 1 0 0 0 1 1h30a1 1 0 0 0 1-1v-32a1 1 0 0 0 -1-1zm-1 2v22h-3a1 1 0 0 0 -1 1v3h-6a1 1 0 0 0 -1 1v3h-6v-3a1 1 0 0 0 -1-1h-6v-3a1 1 0 0 0 -1-1h-3v-22zm-28 24h2v3a1 1 0 0 0 1 1h6v2h-9zm19 6v-2h6a1 1 0 0 0 1-1v-3h2v6z"/><path d="m47 47h-4v-4a1 1 0 0 0 -1-1h-4a1 1 0 0 0 -1 1v4h-4a1 1 0 0 0 -1 1v4a1 1 0 0 0 1 1h4v4a1 1 0 0 0 1 1h4a1 1 0 0 0 1-1v-4h4a1 1 0 0 0 1-1v-4a1 1 0 0 0 -1-1zm-1 4h-4a1 1 0 0 0 -1 1v4h-2v-4a1 1 0 0 0 -1-1h-4v-2h4a1 1 0 0 0 1-1v-4h2v4a1 1 0 0 0 1 1h4z"/><path d="m23 43a7 7 0 1 0 7 7 7.008 7.008 0 0 0 -7-7zm0 12a5 5 0 1 1 5-5 5.006 5.006 0 0 1 -5 5z"/><path d="m22 47h2v2h-2z"/><path d="m20 49h2v2h-2z"/><path d="m22 51h2v2h-2z"/><path d="m24 49h2v2h-2z"/><path d="m28 24h3v3a1 1 0 0 0 1 1h4a1 1 0 0 0 1-1v-8a1 1 0 0 0 -1-1h-3v-3a1 1 0 0 0 -1-1h-4a1 1 0 0 0 -1 1v8a1 1 0 0 0 1 1zm1-8h2v3a1 1 0 0 0 1 1h3v6h-2v-3a1 1 0 0 0 -1-1h-3z"/><path d="m20 10h2v2h-2z"/><path d="m24 10h2v2h-2z"/><path d="m38 10h2v2h-2z"/><path d="m42 10h2v2h-2z"/></g></svg>